<?xml version="1.0" encoding="utf-8"?>

<!DOCTYPE svg PUBLIC "-//W3C//DTD SVG 1.1//EN" "http://www.w3.org/Graphics/SVG/1.1/DTD/svg11.dtd">
<!-- Uploaded to: SVG Repo, www.svgrepo.com, Generator: SVG Repo Mixer Tools -->
<svg height="800px" width="800px" version="1.1" id="_x32_" xmlns="http://www.w3.org/2000/svg" xmlns:xlink="http://www.w3.org/1999/xlink" 
	 viewBox="0 0 512 512"  xml:space="preserve">
<style type="text/css">
	.st0{fill:#000000;}
</style>
<g>
	<polygon class="st0" points="346.572,90.717 416.641,121.454 414.662,125.959 446.979,140.13 464.561,100.032 432.244,85.869 
		430.266,90.374 360.204,59.637 362.183,55.132 329.874,40.96 312.285,81.05 344.601,95.222 	"/>
	<polygon class="st0" points="372.882,140.28 388.079,116.598 369.105,108.268 351.883,130.589 	"/>
	<polygon class="st0" points="171.818,55.35 137.015,134.719 404.237,246.294 433.996,178.439 	"/>
	<path class="st0" d="M82.752,1.447c-3.34-1.673-7.219-1.908-10.739-0.641c-3.511,1.267-6.35,3.926-7.852,7.344L29.827,86.455
		c-1.502,3.418-1.533,7.313-0.087,10.754c1.447,3.441,4.247,6.14,7.743,7.461L117.712,135l41.694-95.073L82.752,1.447z"/>
	<path class="st0" d="M475.166,192.102l-26.874-11.778l-33.654,76.74l26.873,11.778c6.89,3.028,14.922-0.109,17.942-7l22.72-51.791
		C485.193,203.161,482.057,195.128,475.166,192.102z"/>
	<path class="st0" d="M272.107,221.416c0-11.419-9.244-20.679-20.663-20.679s-20.663,9.26-20.663,20.679
		c0,11.418,9.244,20.663,20.663,20.663S272.107,232.834,272.107,221.416z"/>
	<path class="st0" d="M271.724,280.3h37.831v-24.66h-58.111h-58.11v24.66h37.83L133.37,476.86
		c-2.628,5.099-0.618,11.38,4.489,14.015c5.115,2.628,11.396,0.61,14.023-4.505l86.298-170.523l2.862,185.743
		c0,5.748,4.661,10.41,10.402,10.41c5.741,0,10.402-4.662,10.402-10.41l2.863-185.743l86.298,170.523
		c2.628,5.114,8.908,7.132,14.023,4.505c5.107-2.636,7.117-8.916,4.489-14.015L271.724,280.3z"/>
</g>
</svg>